<svg width="476" height="512" viewBox="0 0 476 512" fill="none" xmlns="http://www.w3.org/2000/svg">
<path d="M150.48 258.683C156.44 257.225 160.61 251.715 160.395 245.581C160.036 235.324 159.832 228.407 159.849 227.078C160.122 206.377 163.887 184.857 167.667 164.553C174.437 128.185 181.438 90.5781 167.436 53.3021C160.219 34.0891 147.946 18.4491 132.878 9.2611C115.765 -1.17389 96.338 -2.82589 76.7 4.48411C53.633 13.0691 34.386 29.4801 21.04 51.9441C9.31599 71.6781 2.18899 95.7211 0.429993 121.475C-0.552007 135.856 0.143993 149.431 2.55899 162.977C3.28599 167.052 7.181 169.765 11.253 169.04C15.328 168.313 18.042 164.421 17.316 160.346C15.118 148.021 14.486 135.64 15.384 122.497C18.861 71.6121 43.736 32.7471 81.928 18.5331C116.127 5.80311 142.471 29.4711 153.404 58.5741C169.64 101.797 154.169 147.805 147.909 191.209C146.204 203.028 145.016 214.933 144.86 226.881C144.84 228.449 145.007 234.377 145.358 244.51C127.309 249.018 75.748 263.222 57.398 268.292C52.01 254.753 46.74 242.439 42.07 231.524C35.875 217.047 30.525 204.544 26.156 192.357C24.759 188.46 20.469 186.435 16.572 187.831C12.675 189.228 10.649 193.519 12.046 197.415C16.567 210.027 21.999 222.722 28.289 237.421C33.345 249.238 38.574 261.456 44.113 275.451C46.123 280.529 50.98 283.686 56.203 283.686C57.357 283.686 58.529 283.532 59.692 283.211C76.756 278.491 133.733 262.779 150.48 258.683Z" fill="#206CDD"/>
<path d="M171.553 293.436C171.541 293.355 171.527 293.274 171.513 293.194C170.869 289.679 168.779 286.55 165.78 284.607C162.781 282.665 159.07 282.037 155.6 282.887L66.7071 304.635C63.1021 305.517 60.0361 307.903 58.2951 311.18C56.5971 314.377 56.3091 318.143 57.4901 321.555L74.1101 376.453C74.1541 376.597 74.2021 376.741 74.2541 376.883C82.4201 398.945 103.086 412.751 125.541 412.749C130.266 412.749 135.074 412.137 139.857 410.862C153.236 407.297 164.683 398.891 172.091 387.193C179.476 375.532 182.187 361.639 179.73 348.059L171.553 293.436ZM135.997 396.379C116.065 401.691 95.64 391.166 88.3881 371.884L72.2871 318.702L157.072 297.958L164.922 350.397C164.934 350.478 164.948 350.558 164.962 350.639C168.689 370.966 155.965 391.057 135.997 396.379Z" fill="#206CDD"/>
<path d="M329.512 108.201C310.455 99.488 290.959 99.729 273.135 108.896C257.441 116.968 244.067 131.679 235.477 150.318C218.811 186.482 223.069 224.498 227.188 261.262C229.525 282.125 231.703 303.167 230.456 324.188C230.377 325.518 229.673 332.402 228.572 342.603C227.913 348.706 231.674 354.503 237.513 356.388C253.904 361.681 309.603 381.483 326.284 387.426C327.731 387.942 329.212 388.188 330.67 388.188C335.542 388.188 340.156 385.439 342.386 380.816C348.925 367.257 355.026 355.448 360.925 344.027C381.821 303.579 396.918 274.354 397.107 230.411C397.214 205.443 391.544 180.305 381.141 159.627C369.248 135.988 351.396 118.205 329.512 108.201ZM347.608 337.147C342.158 347.696 336.01 359.599 329.654 372.713C311.715 366.325 261.313 348.421 243.647 342.621C244.732 332.54 245.328 326.64 245.421 325.074C246.715 303.227 244.515 281.278 242.086 259.594C238.017 223.271 234.174 188.964 249.092 156.592C262.103 128.357 290.089 106.663 323.281 121.833C342.03 130.405 357.407 145.803 367.751 166.363C377.113 184.972 382.215 207.694 382.118 230.346C381.944 270.68 368.284 297.122 347.608 337.147Z" fill="#206CDD"/>
<path d="M317.738 408.288L278.881 395.736C274.937 394.463 270.717 396.626 269.445 400.564C268.172 404.503 270.334 408.728 274.273 410L311.152 421.913L291.241 473.789C282.611 492.495 261.475 501.512 241.982 494.771C222.452 488.016 211.217 467.056 216.405 447.052C216.425 446.973 216.444 446.894 216.463 446.814L228.092 395.081L240.96 399.238C244.901 400.509 249.124 398.348 250.396 394.41C251.669 390.471 249.507 386.246 245.568 384.974L230.653 380.155C227.253 379.058 223.507 379.413 220.375 381.134C217.243 382.855 214.932 385.825 214.035 389.283C214.014 389.362 213.995 389.442 213.977 389.521L201.864 443.41C198.43 456.776 200.127 470.828 206.648 482.994C213.189 495.197 223.998 504.41 237.083 508.935C243.078 511.008 249.181 511.998 255.185 511.998C276.13 511.996 295.808 499.941 304.975 479.798C305.037 479.66 305.096 479.52 305.15 479.379L325.703 425.83C327.129 422.511 327.114 418.735 325.652 415.423C324.154 412.031 321.269 409.429 317.738 408.288Z" fill="#206CDD"/>
<path d="M330.912 76.889C331.287 82.472 335.011 87.053 340.4 88.558C341.596 88.892 342.8 89.054 343.985 89.054C348.14 89.054 352.062 87.0601 354.562 83.496L385.013 40.098C387.459 36.611 388.045 32.142 386.581 28.142C385.117 24.143 381.783 21.109 377.665 20.026L343.705 11.096C339.665 10.034 335.326 10.987 332.103 13.649C328.88 16.31 327.122 20.39 327.402 24.56L330.912 76.889ZM371.117 33.805L345.495 70.321L342.541 26.291L371.117 33.805Z" fill="#206CDD"/>
<path d="M474.477 83.615L453.15 37.439C451.319 33.475 447.651 30.707 443.337 30.034C439.024 29.361 434.686 30.879 431.735 34.096L375.836 95.023C371.973 99.232 371.275 105.176 374.056 110.166C376.414 114.396 380.669 116.859 385.328 116.859C386.166 116.859 387.017 116.779 387.872 116.616L465.098 101.865C469.061 101.108 472.392 98.616 474.236 95.028C476.081 91.438 476.169 87.279 474.477 83.615ZM390.901 100.776L440.782 46.408L459.813 87.613L390.901 100.776Z" fill="#206CDD"/>
</svg>
